<svg width="77" height="77" xmlns="http://www.w3.org/2000/svg" xmlns:xlink="http://www.w3.org/1999/xlink" overflow="hidden"><defs><clipPath id="clip0"><path d="M79 610 156 610 156 687 79 687Z" fill-rule="evenodd" clip-rule="evenodd"/></clipPath><clipPath id="clip1"><path d="M80 611 155 611 155 686 80 686Z" fill-rule="evenodd" clip-rule="evenodd"/></clipPath><clipPath id="clip2"><path d="M80 611 155 611 155 686 80 686Z" fill-rule="evenodd" clip-rule="evenodd"/></clipPath><clipPath id="clip3"><path d="M80 611 155 611 155 686 80 686Z" fill-rule="evenodd" clip-rule="evenodd"/></clipPath></defs><g clip-path="url(#clip0)" transform="translate(-79 -610)"><g clip-path="url(#clip1)"><g clip-path="url(#clip2)"><g clip-path="url(#clip3)"><path d="M143.506 640.609 117.208 630.09 90.9091 640.609 117.208 651.129 143.506 640.609ZM143.506 640.609 143.506 656.388" stroke="#191F32" stroke-width="3" stroke-linecap="round" stroke-linejoin="round" fill="none"/><path d="M101.428 644.816 101.428 659.018C101.428 661.11 103.091 663.117 106.05 664.596 109.009 666.076 113.023 666.907 117.208 666.907 121.393 666.907 125.406 666.076 128.365 664.596 131.324 663.117 132.987 661.11 132.987 659.018L132.987 644.816" stroke="#191F32" stroke-width="3" stroke-linecap="round" stroke-linejoin="round" fill="none"/></g></g></g></g></svg>