<svg width="77" height="77" xmlns="http://www.w3.org/2000/svg" xmlns:xlink="http://www.w3.org/1999/xlink" overflow="hidden"><defs><clipPath id="clip0"><path d="M1499 868 1576 868 1576 945 1499 945Z" fill-rule="evenodd" clip-rule="evenodd"/></clipPath><clipPath id="clip1"><path d="M1500 869 1575 869 1575 944 1500 944Z" fill-rule="evenodd" clip-rule="evenodd"/></clipPath><clipPath id="clip2"><path d="M1500 869 1575 869 1575 944 1500 944Z" fill-rule="evenodd" clip-rule="evenodd"/></clipPath><clipPath id="clip3"><path d="M1500 869 1575 869 1575 944 1500 944Z" fill-rule="evenodd" clip-rule="evenodd"/></clipPath></defs><g clip-path="url(#clip0)" transform="translate(-1499 -868)"><g clip-path="url(#clip1)"><g clip-path="url(#clip2)"><g clip-path="url(#clip3)"><path d="M1543.13 880.25 1543.13 892.25C1543.13 893.046 1543.44 893.809 1544 894.371 1544.57 894.934 1545.33 895.25 1546.13 895.25L1558.13 895.25M1552.23 932.75 1522.77 932.75C1521.2 932.75 1519.71 932.135 1518.6 931.042 1517.5 929.948 1516.88 928.464 1516.88 926.917L1516.88 886.083C1516.88 884.536 1517.5 883.052 1518.6 881.958 1519.71 880.865 1521.2 880.25 1522.77 880.25L1543.39 880.25 1558.13 894.833 1558.13 926.917C1558.13 928.464 1557.5 929.948 1556.4 931.042 1555.29 932.135 1553.8 932.75 1552.23 932.75ZM1529.25 923.744 1534.08 921.775C1534.27 921.697 1534.45 921.575 1534.59 921.419L1545.19 909.514C1546.19 908.389 1546.09 906.665 1544.96 905.664L1543.68 904.517C1542.55 903.516 1540.83 903.615 1539.83 904.74L1529.21 916.659C1529.08 916.806 1528.98 916.979 1528.93 917.168L1527.43 922.083C1527.09 923.182 1528.18 924.177 1529.25 923.744Z" stroke="#191F32" stroke-width="3" fill="none"/></g></g></g></g></svg>