<svg width="77" height="77" xmlns="http://www.w3.org/2000/svg" xmlns:xlink="http://www.w3.org/1999/xlink" overflow="hidden"><defs><clipPath id="clip0"><path d="M1357 352 1434 352 1434 429 1357 429Z" fill-rule="evenodd" clip-rule="evenodd"/></clipPath><clipPath id="clip1"><path d="M1358 353 1433 353 1433 428 1358 428Z" fill-rule="evenodd" clip-rule="evenodd"/></clipPath><clipPath id="clip2"><path d="M1358 353 1433 353 1433 428 1358 428Z" fill-rule="evenodd" clip-rule="evenodd"/></clipPath><clipPath id="clip3"><path d="M1358 353 1433 353 1433 428 1358 428Z" fill-rule="evenodd" clip-rule="evenodd"/></clipPath></defs><g clip-path="url(#clip0)" transform="translate(-1357 -352)"><g clip-path="url(#clip1)"><g clip-path="url(#clip2)"><g clip-path="url(#clip3)"><path d="M1407.43 377.12C1407.43 379.463 1406.73 381.754 1405.42 383.702 1404.11 385.65 1402.25 387.168 1400.07 388.065 1397.89 388.962 1395.49 389.197 1393.17 388.739 1390.86 388.282 1388.73 387.154 1387.06 385.497 1385.39 383.84 1384.26 381.729 1383.8 379.431 1383.34 377.133 1383.57 374.751 1384.48 372.587 1385.38 370.422 1386.91 368.572 1388.87 367.27 1390.83 365.968 1393.14 365.273 1395.5 365.273 1398.66 365.273 1401.7 366.522 1403.94 368.743 1406.17 370.965 1407.43 373.978 1407.43 377.12ZM1404.45 397.958 1386.55 397.958C1382.6 397.958 1378.8 399.518 1376 402.295 1373.21 405.072 1371.64 408.839 1371.64 412.766 1371.64 413.552 1371.95 414.305 1372.51 414.861 1373.07 415.416 1373.83 415.728 1374.62 415.728L1416.38 415.728C1417.17 415.728 1417.93 415.416 1418.49 414.861 1419.05 414.305 1419.36 413.552 1419.36 412.766 1419.36 408.839 1417.79 405.072 1415 402.295 1412.2 399.518 1408.4 397.958 1404.45 397.958Z" stroke="#191F32" stroke-width="3" stroke-linecap="round" stroke-linejoin="round" fill="none"/></g></g></g></g></svg>