<svg width="77" height="77" xmlns="http://www.w3.org/2000/svg" xmlns:xlink="http://www.w3.org/1999/xlink" overflow="hidden"><defs><clipPath id="clip0"><path d="M79 352 156 352 156 429 79 429Z" fill-rule="evenodd" clip-rule="evenodd"/></clipPath><clipPath id="clip1"><path d="M80 353 155 353 155 428 80 428Z" fill-rule="evenodd" clip-rule="evenodd"/></clipPath><clipPath id="clip2"><path d="M80 353 155 353 155 428 80 428Z" fill-rule="evenodd" clip-rule="evenodd"/></clipPath><clipPath id="clip3"><path d="M80 353 155 353 155 428 80 428Z" fill-rule="evenodd" clip-rule="evenodd"/></clipPath></defs><g clip-path="url(#clip0)" transform="translate(-79 -352)"><g clip-path="url(#clip1)"><g clip-path="url(#clip2)"><g clip-path="url(#clip3)"><path d="M138.377 391.965 117.437 412.704 96.497 391.965C95.1158 390.621 94.0279 389.005 93.3017 387.22 92.5755 385.435 92.2268 383.519 92.2775 381.592 92.3283 379.666 92.7774 377.771 93.5965 376.026 94.4157 374.282 95.5872 372.726 97.0372 371.457 98.4872 370.187 100.184 369.232 102.022 368.65 103.859 368.069 105.797 367.874 107.714 368.079 109.63 368.283 111.483 368.882 113.157 369.838 114.83 370.794 116.287 372.086 117.437 373.633 118.592 372.097 120.051 370.816 121.723 369.871 123.395 368.925 125.245 368.335 127.156 368.137 129.067 367.939 130.998 368.137 132.829 368.72 134.659 369.302 136.35 370.257 137.795 371.523 139.24 372.789 140.408 374.34 141.226 376.078 142.044 377.816 142.495 379.705 142.549 381.625 142.604 383.546 142.261 385.457 141.544 387.239 140.826 389.021 139.748 390.635 138.377 391.982" stroke="#191F32" stroke-width="3" stroke-linecap="round" stroke-linejoin="round" fill="none"/><path d="M117.437 373.617 108.243 382.811C107.719 383.335 107.425 384.045 107.425 384.785 107.425 385.526 107.719 386.236 108.243 386.759L109.759 388.275C111.685 390.202 114.813 390.202 116.739 388.275L119.531 385.483C121.197 383.817 123.457 382.881 125.813 382.881 128.169 382.881 130.429 383.817 132.095 385.483L138.377 391.765" stroke="#191F32" stroke-width="3" stroke-linecap="round" stroke-linejoin="round" fill="none"/><path d="M118.833 400.141 124.417 405.725" stroke="#191F32" stroke-width="3" stroke-linecap="round" stroke-linejoin="round" fill="none"/><path d="M125.813 393.16 131.397 398.744" stroke="#191F32" stroke-width="3" stroke-linecap="round" stroke-linejoin="round" fill="none"/></g></g></g></g></svg>